<?xml version="1.0" encoding="UTF-8"?>
<!DOCTYPE svg PUBLIC "-//W3C//DTD SVG 1.1//EN" "http://www.w3.org/Graphics/SVG/1.1/DTD/svg11.dtd">
<svg xmlns="http://www.w3.org/2000/svg" version="1.1"
     width="16px" height="16px"
     viewBox="0 0 256 256"
     style="shape-rendering:geometricPrecision; text-rendering:geometricPrecision; image-rendering:optimizeQuality; fill-rule:evenodd; clip-rule:evenodd"
     xmlns:xlink="http://www.w3.org/1999/xlink"><g><path style="opacity:0.833" fill="#fefffe" d="M 123.5,4.5 C 132.67,2.67907 138.004,6.34574 139.5,15.5C 139.237,18.0278 138.404,20.3611 137,22.5C 134.8,23.8355 132.967,25.5022 131.5,27.5C 130.212,36.1743 129.378,44.8409 129,53.5C 136.879,46.6197 145.045,40.1197 153.5,34C 166.07,29.2672 176.57,32.1005 185,42.5C 189.849,52.0119 189.516,61.3452 184,70.5C 171.995,80.3417 160.162,90.3417 148.5,100.5C 164.418,113.569 181.085,125.736 198.5,137C 200.396,138.808 200.896,140.975 200,143.5C 198.612,144.554 197.112,144.72 195.5,144C 178.833,132.333 162.167,120.667 145.5,109C 141.797,105.604 140.631,101.437 142,96.5C 153.039,86.4033 164.539,76.9033 176.5,68C 183.676,58.7369 183.009,50.0702 174.5,42C 169.478,38.4948 164.145,37.8281 158.5,40C 148.048,47.4506 137.881,55.2839 128,63.5C 127.12,71.1865 126.12,78.8532 125,86.5C 122.733,87.9348 120.733,87.6015 119,85.5C 119.328,80.5246 119.328,75.5246 119,70.5C 114.51,76.1429 109.51,76.8096 104,72.5C 105.148,41.9835 90.6479,27.1502 60.5,28C 41.6998,32.9675 31.3665,45.1341 29.5,64.5C 32.3227,86.8221 44.9894,99.3221 67.5,102C 69.3467,104.579 69.8467,107.412 69,110.5C 54.6761,123.15 40.0094,135.483 25,147.5C 18.8216,159.297 21.6549,168.13 33.5,174C 39.3044,175.224 44.6378,174.224 49.5,171C 60.1667,162.333 70.8333,153.667 81.5,145C 86.8459,143.348 91.0125,144.848 94,149.5C 96.6667,154.167 99.3333,158.833 102,163.5C 103.96,160.415 105.793,157.248 107.5,154C 112.1,152.417 113.934,153.917 113,158.5C 111.088,162.66 108.921,166.66 106.5,170.5C 119.468,192.631 132.634,214.631 146,236.5C 153.913,245.455 162.247,245.788 171,237.5C 172.336,234.991 173.17,232.324 173.5,229.5C 166.17,210.503 158.003,191.836 149,173.5C 145.808,165.024 148.642,160.857 157.5,161C 174.833,171.333 192.167,181.667 209.5,192C 219.285,196.294 226.785,193.794 232,184.5C 234.351,178.272 233.351,172.605 229,167.5C 224.667,164.5 220.333,161.5 216,158.5C 215.436,153.064 217.603,151.564 222.5,154C 227.286,157.118 231.786,160.618 236,164.5C 243.825,178.336 241.325,189.836 228.5,199C 222.295,201.838 215.962,202.171 209.5,200C 191.667,189.5 173.833,179 156,168.5C 155.333,169.5 155.333,170.5 156,171.5C 164.274,189.048 172.274,206.715 180,224.5C 181.765,236.809 176.931,245.309 165.5,250C 156.371,252.209 148.537,250.042 142,243.5C 128.833,221.833 115.667,200.167 102.5,178.5C 99.1144,183.437 96.1144,188.604 93.5,194C 98.9586,203.91 96.2919,210.41 85.5,213.5C 75.2821,211.403 72.1154,205.403 76,195.5C 79.0057,192.387 82.6724,190.72 87,190.5C 90.7723,183.954 94.2723,177.288 97.5,170.5C 94.2267,164.123 90.56,157.957 86.5,152C 85.0922,151.685 83.7589,152.018 82.5,153C 74.1667,160 65.8333,167 57.5,174C 48.2416,181.928 37.9083,183.595 26.5,179C 13.7992,169.36 11.2992,157.526 19,143.5C 32.8744,131.29 47.041,119.457 61.5,108C 35.2785,102.447 22.4452,86.2799 23,59.5C 26.3137,40.5174 37.147,28.0174 55.5,22C 81.4938,16.4112 99.3272,25.9112 109,50.5C 109.888,56.1561 110.721,61.8227 111.5,67.5C 114.759,64.9522 117.926,62.2855 121,59.5C 122.003,48.6365 123.17,37.8032 124.5,27C 122.355,24.8551 120.188,22.6884 118,20.5C 116.016,13.6603 117.85,8.32694 123.5,4.5 Z M 125.5,11.5 C 132.564,11.3516 133.897,13.8516 129.5,19C 124.632,18.7108 123.299,16.2108 125.5,11.5 Z M 82.5,198.5 C 88.7286,198.027 90.3953,200.36 87.5,205.5C 81.8045,206.446 80.1378,204.112 82.5,198.5 Z"/></g>
<g><path style="opacity:0.817" fill="#fefffe" d="M 70.5,33.5 C 71.8734,33.3433 73.2068,33.51 74.5,34C 75.6863,37.421 77.6863,40.2543 80.5,42.5C 79.2882,44.9231 77.2882,45.9231 74.5,45.5C 74.003,50.4928 71.8363,51.4928 68,48.5C 67.51,47.2068 67.3433,45.8734 67.5,44.5C 63.7747,44.2204 62.608,42.2204 64,38.5C 67.3609,38.3019 69.5276,36.6352 70.5,33.5 Z"/></g>
<g><path style="opacity:0.813" fill="#fefffe" d="M 43.5,55.5 C 45.288,55.2148 46.9547,55.5481 48.5,56.5C 49.1922,59.1229 50.6922,61.1229 53,62.5C 53.9558,66.9252 52.1225,68.5918 47.5,67.5C 47.2204,71.2253 45.2204,72.392 41.5,71C 40.8639,68.2255 39.3639,66.0588 37,64.5C 36.0442,60.0748 37.8775,58.4082 42.5,59.5C 42.4326,58.0413 42.7659,56.7079 43.5,55.5 Z"/></g>
<g><path style="opacity:0.832" fill="#fefffe" d="M 79.5,59.5 C 81.5996,59.4772 83.4329,60.1439 85,61.5C 87.0548,60.3078 89.0548,60.3078 91,61.5C 90.0023,65.4726 89.6689,69.4726 90,73.5C 89.2753,74.0585 88.4419,74.3918 87.5,74.5C 85.845,73.6123 84.1783,73.1123 82.5,73C 80.2438,74.4992 80.2438,76.1659 82.5,78C 80.7532,81.9936 78.2532,82.4936 75,79.5C 73.9783,80.354 73.1449,81.354 72.5,82.5C 74.5512,87.6172 72.8845,89.4506 67.5,88C 66.0929,86.548 64.5929,86.7147 63,88.5C 59.0096,86.533 58.5096,83.8663 61.5,80.5C 59.7357,74.0596 61.7357,72.393 67.5,75.5C 68.5,75 69.5,74.5 70.5,74C 67.486,70.7224 67.986,68.2224 72,66.5C 73.7983,67.5038 75.6316,68.0038 77.5,68C 78.4303,66.6047 78.4303,65.1047 77.5,63.5C 77.7517,61.9271 78.4183,60.5938 79.5,59.5 Z"/></g>
<g><path style="opacity:0.821" fill="#fefffe" d="M 99.5,101.5 C 101.199,101.34 102.866,101.506 104.5,102C 105.622,104.124 107.122,105.957 109,107.5C 111.241,104.773 113.907,104.106 117,105.5C 118.176,109.26 117.01,112.093 113.5,114C 114.333,114.833 115.167,115.667 116,116.5C 119.311,112.463 122.144,112.63 124.5,117C 124.11,119.459 122.776,121.126 120.5,122C 122.036,126.633 124.369,127.299 127.5,124C 129.112,123.28 130.612,123.446 132,124.5C 132.269,128.142 131.602,131.475 130,134.5C 131,135.5 132,136.5 133,137.5C 136.599,133.441 139.766,133.607 142.5,138C 141.21,140.292 139.543,142.292 137.5,144C 141.464,146.906 143.13,150.572 142.5,155C 140.833,155.667 139.167,155.667 137.5,155C 135.548,152.926 133.715,150.759 132,148.5C 128.445,151.649 125.945,151.149 124.5,147C 125.612,144.924 126.112,142.757 126,140.5C 125,139.5 124,138.5 123,137.5C 120.925,139.648 118.592,139.982 116,138.5C 114.959,135.364 115.793,132.864 118.5,131C 117.333,129.833 116.167,128.667 115,127.5C 112.5,129.536 109.833,129.87 107,128.5C 106.254,125.211 107.42,122.711 110.5,121C 109.667,120.167 108.833,119.333 108,118.5C 105.925,120.648 103.592,120.982 101,119.5C 99.8603,116.472 100.694,114.305 103.5,113C 102.378,110.876 100.878,109.043 99,107.5C 98.3224,105.402 98.4891,103.402 99.5,101.5 Z"/></g>
<g><path style="opacity:0.757" fill="#fefffe" d="M 66.5,118.5 C 71.0685,118.083 72.5685,120.083 71,124.5C 68.3912,127.503 65.2246,129.003 61.5,129C 59.7888,127.867 59.2888,126.367 60,124.5C 62.0627,122.266 64.2294,120.266 66.5,118.5 Z"/></g>
<g><path style="opacity:0.8" fill="#fefffe" d="M 53.5,128.5 C 56.6041,127.971 58.9375,128.971 60.5,131.5C 53.3566,138.804 45.69,145.637 37.5,152C 34.4691,153.075 32.4691,152.075 31.5,149C 32.1258,148.25 32.6258,147.416 33,146.5C 40.3232,141.007 47.1565,135.007 53.5,128.5 Z"/></g>
</svg>
